<?xml version="1.0" encoding="utf-8"?>
<!-- Generator: Adobe Illustrator 29.4.0, SVG Export Plug-In . SVG Version: 9.03 Build 0)  -->
<svg version="1.1" id="Capa_1" xmlns="http://www.w3.org/2000/svg" xmlns:xlink="http://www.w3.org/1999/xlink" x="0px" y="0px"
	 viewBox="0 0 1404.87 424.14" style="enable-background:new 0 0 1404.87 424.14;" xml:space="preserve">
<style type="text/css">
	.Sombra_x0020_paralela{fill:none;}
	.Esquinas_x0020_redondeadas_x0020_2_x0020_pt_x002E_{fill:#FFFFFF;stroke:#000000;stroke-miterlimit:10;}
	.Reflejo_x0020_vivo_x0020_X{fill:none;}
	.Bisel_x0020_suave{fill:url(#SVGID_1_);}
	.Atardecer{fill:#FFFFFF;}
	.Follaje_GS{fill:#FFDD00;}
	.Pompadour_GS{fill-rule:evenodd;clip-rule:evenodd;fill:#51AEE2;}
	.st0{fill:#080913;}
	.st1{fill:#E08A05;}
	.st2{fill:none;}
	.st3{fill:#050505;}
	.st4{fill:#E94E1B;}
	.st5{fill:#FFFFFF;}
	.st6{fill:url(#SVGID_00000066488942223035378550000000762812347247731845_);}
	.st7{fill:#74519C;}
	.st8{fill:#402666;}
</style>
<linearGradient id="SVGID_1_" gradientUnits="userSpaceOnUse" x1="-1566.2023" y1="-1099.4158" x2="-1565.4951" y2="-1098.7086">
	<stop  offset="0" style="stop-color:#E6E6EB"/>
	<stop  offset="0.1738" style="stop-color:#E2E2E6"/>
	<stop  offset="0.352" style="stop-color:#D5D4D8"/>
	<stop  offset="0.5323" style="stop-color:#C0BFC2"/>
	<stop  offset="0.7139" style="stop-color:#A4A2A4"/>
	<stop  offset="0.8949" style="stop-color:#828282"/>
	<stop  offset="1" style="stop-color:#6B6E6E"/>
</linearGradient>
<path class="st0" d="M437.11,175.69L407.67,300.3h-51.73l-21.44-90.6l-21.44,90.6h-51.73l-29.44-124.61h35.73l21.44,90.89
	l21.44-90.89h48.02l21.44,90.89l21.72-90.89H437.11z"/>
<path class="st0" d="M521.42,303.45c-13.72,0-26.58-4.29-37.16-11.43v61.45h-35.73V175.69h35.73v8.29
	c10.58-7.15,23.44-11.43,37.16-11.43c36.3,0,65.45,29.15,65.45,65.45S557.72,303.45,521.42,303.45z M517.7,204.27
	c-18.58,0-33.44,15.15-33.44,33.73s14.86,33.73,33.44,33.73c18.58,0,33.73-15.15,33.73-33.73S536.28,204.27,517.7,204.27z"/>
<path class="st0" d="M598.3,128.53h35.73V300.3H598.3V128.53z"/>
<path class="st0" d="M763.5,277.44c-12,15.72-31.15,26.01-52.59,26.01c-36.01,0-65.45-29.15-65.45-65.45s29.44-65.45,65.45-65.45
	c36.3,0,65.74,29.44,65.74,65.45c0,8.57-2,16.01-2,16.01h-93.17c5.72,10.57,16.86,17.72,29.44,17.72c10,0,19.15-4.57,25.15-11.43
	L763.5,277.44z M681.47,221.99h59.16c-5.72-10.29-16.86-17.72-29.72-17.72C698.33,204.27,687.18,211.7,681.47,221.99z"/>
<path class="st0" d="M850.38,238l45.44,62.31h-36.87l-26.87-36.87l-27.15,36.87h-36.87L813.51,238l-45.44-62.31h36.87l27.15,37.16
	l26.87-37.16h36.87L850.38,238z"/>
<path class="st0" d="M924.98,300.3c-9.72,0-17.72-8-17.72-17.72c0-10,8-18.01,17.72-18.01c10,0,18.01,8,18.01,18.01
	C942.98,292.3,934.98,300.3,924.98,300.3z"/>
<path class="st1" d="M1092.75,128.53V300.3h-35.44v-8.29c-10.58,7.15-23.44,11.43-37.44,11.43c-36.01,0-65.45-29.15-65.45-65.45
	s29.44-65.45,65.45-65.45c14,0,26.87,4.29,37.44,11.43v-55.45H1092.75z M1057.31,238c0-18.58-15.15-33.73-33.73-33.73
	c-18.58,0-33.44,15.15-33.44,33.73s14.86,33.73,33.44,33.73C1042.16,271.72,1057.31,256.57,1057.31,238z"/>
<path class="st1" d="M1222.22,277.44c-12,15.72-31.15,26.01-52.59,26.01c-36.01,0-65.45-29.15-65.45-65.45s29.44-65.45,65.45-65.45
	c36.3,0,65.74,29.44,65.74,65.45c0,8.57-2,16.01-2,16.01h-93.17c5.72,10.57,16.86,17.72,29.44,17.72c10,0,19.15-4.57,25.15-11.43
	L1222.22,277.44z M1140.19,221.99h59.16c-5.72-10.29-16.86-17.72-29.72-17.72C1157.05,204.27,1145.91,211.7,1140.19,221.99z"/>
<path class="st1" d="M1355.12,175.69l-36.87,124.61h-51.73l-36.87-124.61h35.73l26.87,91.46l27.15-91.46H1355.12z"/>
<g>
	<path class="st2" d="M155.21,173.13l-12.4,20.19h23.2c11.52,0,20.74-9.55,20.74-21.07c0-11.52-9.22-21.07-20.74-21.07h-29.84
		l-14.19,32.27L155.21,173.13z"/>
	<path class="st3" d="M227.9,172.25c0-34.24-27.65-61.89-61.89-61.89h-8.1l-21.74,40.82h29.84c11.52,0,20.74,9.55,20.74,21.07
		c0,11.52-9.22,21.07-20.74,21.07h-23.2l-65.68,106.9v0.08h41.15v-65.84h26.34l42.14,65.84h41.15l-44.77-68.47
		C209.14,224.59,227.9,200.56,227.9,172.25z"/>
	<polygon class="st4" points="77.08,300.3 77.13,300.22 77.13,300.08 	"/>
	<polygon class="st1" points="132.45,146.57 156.04,102.28 86.72,102.28 65.12,176.92 50.94,225.94 65.12,221.53 86.99,214.73 
		65.12,308.15 65.12,308.3 136.39,192.3 149.85,170.39 113.79,181.6 	"/>
</g>
</svg>
